HIERARCHY
ROOT Hips
{
	OFFSET 0.000000 0.000000 0.000000
	CHANNELS 6 Xposition Yposition Zposition Zrotation Yrotation Xrotation 
	JOINT LowerBack
	{
		OFFSET 0.000000 0.000000 0.000000
		CHANNELS 3 Zrotation Yrotation Xrotation
		JOINT Spine
		{
			OFFSET 0.028270 2.035590 -0.193380
			CHANNELS 3 Zrotation Yrotation Xrotation
			JOINT Spine1
			{
				OFFSET 0.056720 2.048850 -0.042750
				CHANNELS 3 Zrotation Yrotation Xrotation
				JOINT Neck
				{
					OFFSET 0.000000 0.000000 0.000000
					CHANNELS 3 Zrotation Yrotation Xrotation
					JOINT Neck1
					{
						OFFSET -0.054170 1.746240 0.172020
						CHANNELS 3 Zrotation Yrotation Xrotation
						JOINT Head
						{
							OFFSET 0.104070 1.761360 -0.123970
							CHANNELS 3 Zrotation Yrotation Xrotation
							End Site
							{
								OFFSET 0.000000 0.000000 0.000000
							}
						}
					}
				}
				JOINT LeftShoulder
				{
					OFFSET 0.000000 0.000000 0.000000
					CHANNELS 3 Zrotation Yrotation Xrotation
					JOINT LeftArm
					{
						OFFSET 3.362410 1.200890 -0.311210
						CHANNELS 3 Zrotation Yrotation Xrotation
						JOINT LeftForeArm
						{
							OFFSET 4.983000 -0.000000 -0.000000
							CHANNELS 3 Zrotation Yrotation Xrotation
							JOINT LeftHand
							{
								OFFSET 3.483560 -0.000000 -0.000000
								CHANNELS 3 Zrotation Yrotation Xrotation
								JOINT LeftFingerBase
								{
									OFFSET 0.000000 0.000000 0.000000
									CHANNELS 3 Zrotation Yrotation Xrotation
									JOINT LeftHandIndex1
									{
										OFFSET 0.715260 -0.000000 -0.000000
										CHANNELS 3 Zrotation Yrotation Xrotation
										End Site
										{
											OFFSET 0.000000 0.000000 0.000000
										}
									}
								}
								JOINT LThumb
								{
									OFFSET 0.000000 0.000000 0.000000
									CHANNELS 3 Zrotation Yrotation Xrotation
									End Site
									{
										OFFSET 0.000000 0.000000 0.000000
									}
								}
							}
						}
					}
				}
				JOINT RightShoulder
				{
					OFFSET 0.000000 0.000000 0.000000
					CHANNELS 3 Zrotation Yrotation Xrotation
					JOINT RightArm
					{
						OFFSET -3.136600 1.374050 -0.404650
						CHANNELS 3 Zrotation Yrotation Xrotation
						JOINT RightForeArm
						{
							OFFSET -5.241900 -0.000000 -0.000000
							CHANNELS 3 Zrotation Yrotation Xrotation
							JOINT RightHand
							{
								OFFSET -3.444170 -0.000000 -0.000000
								CHANNELS 3 Zrotation Yrotation Xrotation
								JOINT RightFingerBase
								{
									OFFSET 0.000000 0.000000 0.000000
									CHANNELS 3 Zrotation Yrotation Xrotation
									JOINT RightHandIndex1
									{
										OFFSET -0.622530 -0.000000 -0.000000
										CHANNELS 3 Zrotation Yrotation Xrotation
										End Site
										{
											OFFSET 0.000000 0.000000 0.000000
										}
									}
								}
								JOINT RThumb
								{
									OFFSET 0.000000 0.000000 0.000000
									CHANNELS 3 Zrotation Yrotation Xrotation
									End Site
									{
										OFFSET 0.000000 0.000000 0.000000
									}
								}
							}
						}
					}
				}
			}
		}
	}
}
}
MOTION
Frames: 12
Frame Time: 0.008333
-10.675250 16.778729 -0.755970 -175.874527 81.012769 -171.694626 2.758351 -5.579598 -3.754391 0.079639 -5.950213 -2.743193 -6.486132 -5.832286 3.579888 11.982147 -21.183323 -11.759105 -2.507936 -0.140266 -1.021605 0.000000 0.000000 0.000000 1.481423 15.684883 1.672118 -32.173094 0.276684 -5.635295 -1.844703 -55.050743 -0.004426 2.168783 0.296106 0.003916 -0.147130 0.166401 0.000000 0.000000 0.000000 0.000000 0.000000 0.000000 0.000000 18.993739 -19.710856 -0.286250 79.712462 -17.800243 -10.290516 4.032991 23.209103 0.011113 3.411422 5.263975 0.154481 0.086550 -0.037393 -0.000000 0.000000 0.000000 0.000000 0.000000 0.000000 0.000000 
-10.450449 16.792646 -0.734581 -175.250697 80.963445 -171.261420 2.860727 -5.495772 -3.719512 0.093417 -5.871434 -2.750814 -6.481674 -5.756141 3.536833 11.946181 -20.981646 -11.686658 -2.517128 -0.142429 -1.002305 0.000000 0.000000 0.000000 1.420524 15.716190 1.640466 -32.918239 0.652372 -5.502494 -1.879347 -54.901627 -0.004007 2.097104 0.297224 0.004024 -0.147608 0.160919 -0.000000 0.000000 0.000000 0.000000 0.000000 0.000000 0.000000 18.879716 -19.433427 -0.291137 79.365402 -17.172929 -10.407367 4.039214 22.958269 0.011068 3.368764 5.200080 0.150683 0.087183 -0.037693 -0.000000 0.000000 0.000000 0.000000 0.000000 0.000000 0.000000 
-10.230361 16.806215 -0.712756 -174.663665 80.961031 -170.836438 2.945847 -5.399428 -3.668849 0.102090 -5.778340 -2.756813 -6.478895 -5.666065 3.488625 11.913036 -20.751471 -11.619572 -2.523706 -0.144230 -0.984761 0.000000 0.000000 0.000000 1.364433 15.746462 1.613301 -33.748203 1.070338 -5.351477 -1.922712 -54.685641 -0.003544 2.002631 0.308755 0.004232 -0.148281 0.154648 -0.000000 0.000000 0.000000 0.000000 0.000000 0.000000 0.000000 18.745266 -19.116844 -0.288411 79.013125 -16.468569 -10.518410 4.040167 22.752788 0.011038 3.296956 5.135635 0.145586 0.087967 -0.038343 -0.000000 0.000000 0.000000 0.000000 0.000000 0.000000 0.000000 
-10.015074 16.819009 -0.690889 -174.093465 81.002117 -170.404330 3.019386 -5.290827 -3.597977 0.107355 -5.671430 -2.760025 -6.475426 -5.562570 3.436756 11.875713 -20.503396 -11.559407 -2.526172 -0.145513 -0.969416 0.000000 0.000000 0.000000 1.304836 15.780023 1.590372 -34.654785 1.513825 -5.181778 -1.974880 -54.393122 -0.003066 1.890143 0.334247 0.004638 -0.149169 0.147640 0.000000 0.000000 0.000000 0.000000 0.000000 0.000000 0.000000 18.580598 -18.773490 -0.278655 78.654676 -15.686101 -10.589888 4.035128 22.595714 0.011044 3.181801 5.085283 0.138991 0.089007 -0.039403 -0.000000 0.000000 0.000000 0.000000 0.000000 0.000000 0.000000 
-9.804409 16.830827 -0.668908 -173.597040 81.081867 -170.027829 3.072820 -5.170820 -3.503350 0.107125 -5.550925 -2.759757 -6.472779 -5.445794 3.379412 11.832375 -20.227094 -11.502741 -2.527486 -0.146581 -0.955412 0.000000 0.000000 0.000000 1.239460 15.816915 1.571905 -35.620524 1.971198 -4.982050 -2.035592 -54.015558 -0.002626 1.775429 0.370620 0.005242 -0.150384 0.139911 -0.000000 0.000000 0.000000 0.000000 0.000000 0.000000 0.000000 18.395604 -18.392253 -0.263984 78.294343 -14.856730 -10.660202 4.024030 22.520658 0.011073 3.038774 5.040083 0.131398 0.090178 -0.040912 -0.000000 0.000000 0.000000 0.000000 0.000000 0.000000 0.000000 
-9.597855 16.841663 -0.647163 -173.148493 81.193549 -169.683305 3.112256 -5.039971 -3.388043 0.103731 -5.417781 -2.756296 -6.467123 -5.316777 3.318849 11.776174 -19.945277 -11.450338 -2.525224 -0.147228 -0.942865 0.000000 0.000000 0.000000 1.160970 15.850575 1.555984 -36.644361 2.444581 -4.759036 -2.104143 -53.552198 -0.002254 1.658979 0.427070 0.006043 -0.151834 0.131459 -0.000000 0.000000 0.000000 0.000000 0.000000 0.000000 0.000000 18.178440 -17.999497 -0.244647 77.920108 -13.969594 -10.661252 4.006804 22.507883 0.011145 2.849827 5.017958 0.122406 0.091633 -0.042848 -0.000000 0.000000 0.000000 0.000000 0.000000 0.000000 0.000000 
-9.394793 16.851660 -0.625610 -172.790481 81.330039 -169.417295 3.131063 -4.899373 -3.254330 0.096021 -5.272697 -2.750028 -6.458312 -5.176213 3.254480 11.706644 -19.662253 -11.399068 -2.520837 -0.147637 -0.930881 0.000000 0.000000 0.000000 1.068866 15.871350 1.541082 -37.717636 2.940330 -4.511810 -2.179385 -53.003886 -0.001984 1.551114 0.505702 0.007041 -0.153499 0.122288 -0.000000 0.000000 0.000000 0.000000 0.000000 0.000000 0.000000 17.936449 -17.601028 -0.221949 77.524460 -13.039514 -10.586098 3.983901 22.562257 0.011246 2.622514 5.015258 0.112317 0.093324 -0.045161 -0.000000 0.000000 0.000000 0.000000 0.000000 0.000000 0.000000 
-9.194561 16.861157 -0.604005 -172.596616 81.484482 -169.306728 3.117299 -4.750733 -3.105542 0.081151 -5.116767 -2.741461 -6.449167 -5.025054 3.185100 11.627894 -19.359710 -11.343750 -2.518799 -0.148275 -0.918092 0.000000 0.000000 0.000000 0.966728 15.887611 1.526652 -38.827907 3.439067 -4.229652 -2.261172 -52.357598 -0.001839 1.468873 0.598524 0.008236 -0.155440 0.112508 -0.000000 0.000000 0.000000 0.000000 0.000000 0.000000 0.000000 17.690893 -17.177646 -0.199515 77.103928 -12.106449 -10.487435 3.956544 22.710742 0.011346 2.389991 5.016539 0.102029 0.095006 -0.047794 -0.000000 0.000000 0.000000 0.000000 0.000000 0.000000 0.000000 
-8.996338 16.870483 -0.582545 -172.550817 81.648228 -169.334162 3.074568 -4.595435 -2.950597 0.060732 -4.951823 -2.732163 -6.437295 -4.865199 3.112471 11.539204 -19.055327 -11.283658 -2.517927 -0.149074 -0.904128 0.000000 0.000000 0.000000 0.853597 15.888539 1.510289 -39.977877 3.955941 -3.926735 -2.348058 -51.620578 -0.001818 1.411127 0.710405 0.009626 -0.157487 0.102183 -0.000000 0.000000 0.000000 0.000000 0.000000 0.000000 0.000000 17.439822 -16.750606 -0.177272 76.641903 -11.162528 -10.314420 3.925984 22.925643 0.011450 2.149919 5.028416 0.091642 0.096741 -0.050631 -0.000000 0.000000 0.000000 0.000000 0.000000 0.000000 0.000000 
-8.799453 16.879989 -0.561301 -172.639917 81.813253 -169.484680 3.005877 -4.435131 -2.798737 0.035523 -4.780044 -2.723886 -6.423292 -4.698768 3.036957 11.443159 -18.741394 -11.215821 -2.520069 -0.150255 -0.888098 0.000000 0.000000 0.000000 0.731638 15.879107 1.491060 -41.167017 4.486057 -3.608953 -2.439411 -50.790278 -0.001925 1.382447 0.839583 0.011411 -0.159569 0.091457 -0.000000 0.000000 0.000000 0.000000 0.000000 0.000000 0.000000 17.192600 -16.312675 -0.156862 76.129405 -10.226926 -10.086895 3.894222 23.206092 0.011545 1.925764 5.041606 0.081855 0.098393 -0.053556 -0.000000 0.000000 0.000000 0.000000 0.000000 0.000000 0.000000 
-8.603288 16.890004 -0.540409 -172.843067 81.972478 -169.734554 2.914211 -4.271694 -2.659276 0.006668 -4.603792 -2.718239 -6.406005 -4.528168 2.960006 11.342448 -18.425731 -11.139824 -2.524767 -0.151802 -0.869737 0.000000 0.000000 0.000000 0.602750 15.855556 1.467488 -42.399478 5.039967 -3.294300 -2.533886 -49.874080 -0.002130 1.379607 0.984617 0.013492 -0.161512 0.080484 0.000000 0.000000 0.000000 0.000000 0.000000 0.000000 0.000000 16.952009 -15.873999 -0.138073 75.553843 -9.297174 -9.784969 3.862882 23.530861 0.011634 1.724918 5.055825 0.073169 0.099953 -0.056449 -0.000000 0.000000 0.000000 0.000000 0.000000 0.000000 0.000000 
-8.407384 16.900761 -0.520033 -173.122062 82.120719 -170.041389 2.805084 -4.106865 -2.540731 -0.024587 -4.425515 -2.716635 -6.385757 -4.355817 2.882857 11.240817 -18.102028 -11.055064 -2.532818 -0.153803 -0.848804 0.000000 0.000000 0.000000 0.470250 15.826895 1.439430 -43.677604 5.611888 -2.996881 -2.630816 -48.872239 -0.002415 1.400807 1.140818 0.015867 -0.163216 0.069479 0.000000 0.000000 0.000000 0.000000 0.000000 0.000000 0.000000 16.724741 -15.428706 -0.121532 74.908226 -8.384294 -9.425821 3.833665 23.894765 0.011714 1.565383 5.063580 0.066083 0.101323 -0.059205 -0.000000 0.000000 0.000000 0.000000 0.000000 0.000000 0.000000 
